<?xml version="1.0" encoding="UTF-8" standalone="no"?>
<svg xmlns="http://www.w3.org/2000/svg" xmlns:xlink="http://www.w3.org/1999/xlink" viewBox="0 0 247 130">
  <defs>
    <path id="a" d="m8.23333 2.996.89895 2.7667h2.90908L9.68787 7.47261l.89895 2.7667L8.23333 8.5294l-2.35349 1.70991.89895-2.7667L4.4253 5.7627h2.90908l.89895-2.7667Zm16.46667 0 .89895 2.7667h2.90908l-2.35349 1.70991.89895 2.7667L24.7 8.5294l-2.35349 1.70991.89895-2.7667-2.35349-1.70991h2.90908L24.7 2.996Zm16.46667 0 .89895 2.7667h2.90908l-2.35349 1.70991.89895 2.7667-2.35349-1.70991-2.35349 1.70991.89895-2.7667-2.35349-1.70991h2.90908l.89895-2.7667Zm16.46666 0 .89895 2.7667h2.90908l-2.35349 1.70991.89895 2.7667-2.35349-1.70991-2.35349 1.70991.89895-2.7667L53.8253 5.7627h2.90908l.89895-2.7667Zm16.46667 0 .89895 2.7667h2.90908l-2.35349 1.70991.89895 2.7667L74.1 8.5294l-2.35349 1.70991.89895-2.7667-2.35349-1.70991h2.90908L74.1 2.996Zm16.46667 0 .89895 2.7667h2.90908l-2.35349 1.70991.89895 2.7667-2.35349-1.70991-2.35349 1.70991.89895-2.7667-2.35349-1.70991h2.90908l.89895-2.7667Zm-74.1 7 .89895 2.7667h2.90908l-2.35349 1.70991.89895 2.7667-2.35349-1.70991-2.35349 1.70991.89895-2.7667-2.35349-1.70991h2.90908l.89895-2.7667Zm16.46666 0 .89895 2.7667h2.90908l-2.35349 1.70991.89895 2.7667-2.35349-1.70991-2.35349 1.70991.89895-2.7667-2.35349-1.70991h2.90908l.89895-2.7667Zm16.46667 0 .89895 2.7667h2.90908l-2.35349 1.70991.89895 2.7667L49.4 15.5294l-2.35349 1.70991.89895-2.7667-2.35349-1.70991h2.90908L49.4 9.996Zm16.46667 0 .89895 2.7667h2.90908l-2.35349 1.70991.89895 2.7667-2.35349-1.70991-2.35349 1.70991.89895-2.7667-2.35349-1.70991h2.90908l.89895-2.7667Zm16.46666 0 .89895 2.7667h2.90908l-2.35349 1.70991.89895 2.7667-2.35349-1.70991-2.35349 1.70991.89895-2.7667-2.35349-1.70991h2.90908l.89895-2.7667Z"/>
  </defs>
  <g fill-rule="evenodd">
    <path fill="red" d="M0 0h247v10H0zm0 20h247v10H0zm0 20h247v10H0zm0 20h247v10H0zm0 20h247v10H0zm0 20h247v10H0zm0 20h247v10H0z" font-size="12"/>
    <path fill="#fff" d="M0 10h247v10H0zm0 20h247v10H0zm0 20h247v10H0zm0 20h247v10H0zm0 20h247v10H0zm0 20h247v10H0z" font-size="12"/>
    <path fill="#00f" d="M-.84879767 1e-7H97.951204V70H-.84879767Z"/>
    <path fill="#fff" d="m7.3845323 3.8447971.89895 2.7667h2.9090797l-2.3534897 1.70991.89895 2.7666999-2.35349-1.7099099-2.35349 1.7099099.89895-2.7666999-2.35349-1.70991h2.90908l.89895-2.7667zm16.4666697 0 .89895 2.7667h2.90908l-2.35349 1.70991.89895 2.7666999-2.35349-1.7099099-2.35349 1.7099099.89895-2.7666999-2.35349-1.70991h2.90908l.89895-2.7667zm16.46667 0 .89895 2.7667h2.90908l-2.35349 1.70991.89895 2.7666999-2.35349-1.7099099-2.35349 1.7099099.89895-2.7666999-2.35349-1.70991h2.90908l.89895-2.7667zm16.46666 0 .89895 2.7667h2.90908l-2.35349 1.70991.89895 2.7666999-2.35349-1.7099099-2.35349 1.7099099.89895-2.7666999-2.35349-1.70991h2.90908l.89895-2.7667zm16.466671 0 .89895 2.7667h2.90908l-2.35349 1.70991.89895 2.7666999-2.35349-1.7099099-2.353491 1.7099099.89895-2.7666999-2.35349-1.70991h2.909081l.89895-2.7667zm16.46667 0 .89895 2.7667h2.909079l-2.353489 1.70991.89895 2.7666999-2.35349-1.7099099-2.35349 1.7099099.89895-2.7666999-2.35349-1.70991h2.90908l.89895-2.7667zM15.617872 10.844797l.89895 2.7667h2.90908l-2.35349 1.70991.89895 2.7667-2.35349-1.70991-2.35349 1.70991.89895-2.7667-2.35349-1.70991h2.90908l.89895-2.7667zm16.46666 0 .89895 2.7667h2.90908l-2.35349 1.70991.89895 2.7667-2.35349-1.70991-2.35349 1.70991.89895-2.7667-2.35349-1.70991h2.90908l.89895-2.7667zm16.46667 0 .89895 2.7667h2.90908l-2.35349 1.70991.89895 2.7667-2.35349-1.70991-2.35349 1.70991.89895-2.7667-2.35349-1.70991h2.90908l.89895-2.7667zm16.46667 0 .89895 2.7667h2.90908l-2.35349 1.70991.89895 2.7667-2.35349-1.70991-2.35349 1.70991.89895-2.7667-2.35349-1.70991h2.90908l.89895-2.7667zm16.466661 0 .89895 2.7667h2.90908l-2.35349 1.70991.89895 2.7667-2.35349-1.70991-2.35349 1.70991.89895-2.7667-2.35349-1.70991h2.90908l.89895-2.7667z"/>
    <use xlink:href="#a" fill="#fff" transform="translate(-2.5463927 14.848797)"/>
    <use xlink:href="#a" fill="#fff" transform="translate(-.84879767 28.848797)"/>
    <use xlink:href="#a" fill="#fff" transform="translate(-.84879767 42.848797)"/>
    <path fill="#fff" d="m7.3845323 59.844797.89895 2.7667h2.9090797l-2.3534897 1.70991.89895 2.7667-2.35349-1.70991-2.35349 1.70991.89895-2.7667-2.35349-1.70991h2.90908l.89895-2.7667zm16.4666697 0 .89895 2.7667h2.90908l-2.35349 1.70991.89895 2.7667-2.35349-1.70991-2.35349 1.70991.89895-2.7667-2.35349-1.70991h2.90908l.89895-2.7667zm16.46667 0 .89895 2.7667h2.90908l-2.35349 1.70991.89895 2.7667-2.35349-1.70991-2.35349 1.70991.89895-2.7667-2.35349-1.70991h2.90908l.89895-2.7667zm16.46666 0 .89895 2.7667h2.90908l-2.35349 1.70991.89895 2.7667-2.35349-1.70991-2.35349 1.70991.89895-2.7667-2.35349-1.70991h2.90908l.89895-2.7667zm16.466671 0 .89895 2.7667h2.90908l-2.35349 1.70991.89895 2.7667-2.35349-1.70991-2.353491 1.70991.89895-2.7667-2.35349-1.70991h2.909081l.89895-2.7667zm16.46667 0 .89895 2.7667h2.909079l-2.353489 1.70991.89895 2.7667-2.35349-1.70991-2.35349 1.70991.89895-2.7667-2.35349-1.70991h2.90908l.89895-2.7667z"/>
  </g>
</svg>