<?xml version="1.0" standalone="no"?>
<!DOCTYPE svg PUBLIC "-//W3C//DTD SVG 20010904//EN"
 "http://www.w3.org/TR/2001/REC-SVG-20010904/DTD/svg10.dtd">
<svg version="1.0" xmlns="http://www.w3.org/2000/svg"
 width="1500.000000pt" height="1500.000000pt" viewBox="0 0 1500.000000 1500.000000"
 preserveAspectRatio="xMidYMid meet">

<g transform="translate(0.000000,1500.000000) scale(0.100000,-0.100000)"
fill="#000000" stroke="none">
<path d="M7393 8442 c-37 -34 -83 -124 -111 -214 -34 -110 -42 -245 -42 -729
l0 -458 -52 -3 c-45 -3 -54 -7 -68 -30 -13 -25 -13 -31 0 -55 l16 -28 169 0
169 0 16 28 c13 24 13 30 0 55 -14 23 -23 27 -69 30 l-53 3 5 592 c5 605 7
638 47 787 6 23 9 44 7 46 -2 3 -18 -8 -34 -24z"/>
<path d="M9134 8444 c49 -191 55 -291 56 -881 l0 -522 -52 -3 c-45 -3 -54 -7
-68 -30 -13 -25 -13 -31 0 -55 l16 -28 169 0 169 0 16 28 c13 24 13 30 0 55
-14 23 -23 27 -68 30 l-52 3 0 264 0 264 36 37 c80 80 206 108 274 61 19 -12
43 -38 54 -57 19 -32 21 -56 26 -300 5 -260 5 -266 30 -309 34 -60 77 -81 162
-81 39 0 68 4 68 10 0 11 -25 36 -65 64 -15 10 -35 32 -46 50 -17 28 -19 52
-19 297 0 282 -6 327 -49 388 -12 17 -43 43 -69 58 -42 25 -56 28 -142 28
-108 0 -165 -21 -226 -82 l-34 -34 0 130 c0 166 -15 314 -41 399 -29 93 -86
199 -122 224 l-30 22 7 -30z"/>
<path d="M6646 8189 c-101 -79 -52 -229 74 -229 53 0 91 23 115 70 43 84 -19
180 -115 180 -33 0 -55 -6 -74 -21z"/>
<path d="M7686 8189 c-101 -79 -52 -229 74 -229 53 0 91 23 115 70 43 84 -19
180 -115 180 -33 0 -55 -6 -74 -21z"/>
<path d="M4701 7968 c-36 -59 -91 -143 -123 -188 -32 -45 -58 -83 -58 -86 0
-2 27 -4 59 -4 l60 0 3 -302 3 -303 28 -58 c49 -98 125 -128 242 -96 38 11
115 75 115 97 0 5 -37 11 -83 14 -66 3 -90 9 -115 27 -60 43 -62 52 -62 355
l0 275 117 3 c116 3 117 3 133 31 13 24 13 30 0 55 -16 27 -17 27 -133 30
l-116 3 -3 127 -3 127 -64 -107z"/>
<path d="M8704 8072 c-26 -17 -37 -59 -36 -139 l1 -83 -29 20 c-40 28 -95 46
-167 55 -159 18 -352 -76 -409 -200 -28 -60 -33 -178 -10 -224 18 -34 79 -89
115 -103 26 -10 25 -10 -25 -29 -84 -32 -125 -85 -110 -144 11 -42 82 -73 289
-125 220 -54 302 -89 379 -159 164 -150 111 -288 -115 -299 -210 -11 -399 57
-426 153 -22 81 27 156 114 176 67 15 118 5 158 -31 28 -25 30 -31 22 -56 -13
-38 -53 -51 -105 -37 -42 11 -47 8 -27 -18 45 -59 165 -49 195 16 30 66 1 140
-69 176 -36 18 -55 21 -123 17 -215 -12 -356 -171 -287 -323 34 -76 143 -142
282 -171 109 -23 311 -15 402 16 90 31 164 84 202 144 25 42 30 59 30 115 0
55 -5 75 -29 116 -45 78 -141 165 -231 212 -94 48 -115 55 -300 92 -143 29
-215 52 -215 70 0 16 42 25 105 21 145 -10 280 -4 335 14 160 52 255 183 228
312 -9 40 -22 60 -74 112 -70 70 -70 70 -16 145 59 82 54 167 -11 167 -18 0
-37 -4 -43 -8z m-151 -238 c103 -35 164 -153 139 -265 -25 -106 -86 -150 -218
-157 -99 -5 -166 14 -212 61 -40 42 -52 75 -52 148 0 103 37 164 125 205 60
29 149 32 218 8z"/>
<path d="M10161 7968 c-36 -59 -91 -143 -123 -188 -32 -45 -58 -83 -58 -86 0
-2 27 -4 59 -4 l60 0 3 -302 3 -303 28 -58 c49 -98 125 -128 242 -96 38 11
115 75 115 97 0 5 -37 11 -83 14 -66 3 -90 9 -115 27 -60 43 -62 52 -62 355
l0 275 117 3 c116 3 117 3 133 31 13 24 13 30 0 55 -16 27 -17 27 -133 30
l-116 3 -3 127 -3 127 -64 -107z"/>
<path d="M5176 7798 c-36 -52 -7 -96 66 -100 l51 -3 143 -384 c79 -211 145
-386 147 -388 4 -4 213 310 236 355 6 12 15 22 19 22 4 0 43 -66 86 -147 44
-82 90 -168 104 -192 25 -43 26 -43 35 -20 5 13 54 155 109 314 55 160 113
325 129 367 l30 77 52 3 c44 3 53 7 67 31 13 24 13 30 0 55 l-16 27 -169 0
-169 0 -16 -27 c-13 -25 -13 -31 0 -55 14 -24 23 -28 68 -31 29 -2 52 -6 52
-10 0 -7 -89 -303 -133 -442 l-24 -75 -68 137 -69 136 17 89 c28 144 21 211
-25 261 -25 26 -73 29 -106 6 -58 -41 -67 -128 -26 -271 l26 -93 -79 -137
c-44 -76 -84 -138 -89 -138 -7 1 -202 505 -204 527 0 4 23 8 52 10 45 3 54 7
68 31 13 24 13 30 0 55 l-16 27 -166 3 c-163 2 -167 2 -182 -20z"/>
<path d="M6755 7786 c-38 -18 -90 -45 -114 -61 l-45 -28 47 -23 c76 -39 77
-43 77 -358 l0 -275 -52 -3 c-45 -3 -54 -7 -68 -30 -13 -25 -13 -31 0 -55 l16
-28 169 0 169 0 16 28 c13 24 13 30 0 55 -14 23 -23 27 -68 30 l-52 3 0 390
c0 305 -3 389 -12 388 -7 0 -44 -15 -83 -33z"/>
<path d="M7795 7786 c-38 -18 -90 -45 -114 -61 l-45 -28 47 -23 c76 -39 77
-43 77 -358 l0 -275 -52 -3 c-45 -3 -54 -7 -68 -30 -13 -25 -13 -31 0 -55 l16
-28 169 0 169 0 16 28 c13 24 13 30 0 55 -14 23 -23 27 -68 30 l-52 3 0 390
c0 305 -3 389 -12 388 -7 0 -44 -15 -83 -33z"/>
</g>
</svg>
